<svg width="150" height="32" fill="none" xmlns="http://www.w3.org/2000/svg"><path d="M144.34 0H5.66A5.66 5.66 0 000 5.66v19.812a5.66 5.66 0 005.66 5.66h138.68a5.66 5.66 0 005.66-5.66V5.66A5.66 5.66 0 00144.34 0z" fill="#F2F2F2"/><path d="M42.762 10.774v7.976h.995v-2.847h2.007c1.498 0 2.565-1.056 2.565-2.548 0-1.52-1.045-2.581-2.554-2.581h-3.013zm.995.884h1.758c1.155 0 1.791.603 1.791 1.697 0 1.056-.658 1.664-1.79 1.664h-1.759v-3.361zm8.137 7.197c1.697 0 2.748-1.172 2.748-3.084 0-1.919-1.05-3.085-2.748-3.085-1.697 0-2.747 1.166-2.747 3.085 0 1.912 1.05 3.084 2.747 3.084zm0-.857c-1.127 0-1.763-.818-1.763-2.227 0-1.415.636-2.228 1.763-2.228 1.128 0 1.764.813 1.764 2.228 0 1.41-.636 2.227-1.764 2.227zm11.288-5.207h-.956l-1.172 4.765h-.089l-1.332-4.765h-.912l-1.332 4.765h-.088l-1.172-4.765h-.962l1.67 5.96h.961l1.327-4.611h.088l1.332 4.61h.968l1.67-5.959zm3.2.735c.946 0 1.576.697 1.598 1.753h-3.283c.072-1.056.735-1.753 1.686-1.753zm1.57 3.682c-.248.525-.767.807-1.536.807-1.011 0-1.67-.746-1.72-1.924v-.044h4.285v-.365c0-1.852-.978-2.996-2.587-2.996-1.636 0-2.687 1.216-2.687 3.09 0 1.885 1.034 3.08 2.687 3.08 1.304 0 2.233-.631 2.51-1.648h-.951zm2.295 1.542h.95v-3.693c0-.84.659-1.448 1.565-1.448.188 0 .53.033.609.056v-.951a4.09 4.09 0 00-.476-.028c-.79 0-1.476.41-1.653.99h-.088v-.885h-.907v5.96zm6.296-5.224c.945 0 1.576.697 1.598 1.753h-3.284c.072-1.056.736-1.753 1.686-1.753zm1.57 3.682c-.249.525-.768.807-1.537.807-1.011 0-1.669-.746-1.719-1.924v-.044h4.284v-.365c0-1.852-.978-2.996-2.587-2.996-1.636 0-2.686 1.216-2.686 3.09 0 1.885 1.034 3.08 2.686 3.08 1.305 0 2.233-.631 2.51-1.648h-.95zm4.5 1.647c.824 0 1.531-.392 1.907-1.056h.088v.951h.907v-8.325h-.95v3.306h-.084c-.337-.652-1.039-1.045-1.868-1.045-1.515 0-2.504 1.216-2.504 3.085 0 1.873.978 3.084 2.504 3.084zm.22-5.312c1.08 0 1.754.862 1.754 2.228 0 1.376-.67 2.227-1.753 2.227-1.089 0-1.741-.834-1.741-2.227 0-1.388.658-2.228 1.74-2.228zm10.234 5.312c1.509 0 2.498-1.221 2.498-3.084 0-1.874-.984-3.085-2.498-3.085-.818 0-1.543.404-1.87 1.045h-.088v-3.306h-.95v8.325h.906v-.95h.089c.376.663 1.083 1.055 1.913 1.055zm-.222-5.312c1.089 0 1.736.835 1.736 2.228 0 1.393-.647 2.227-1.736 2.227-1.083 0-1.758-.85-1.758-2.227 0-1.377.675-2.228 1.758-2.228zm4.274 7.363c1.055 0 1.53-.41 2.039-1.791l2.328-6.324h-1.012l-1.631 4.903h-.089l-1.635-4.903H96.09l2.205 5.965-.111.353c-.249.719-.547.979-1.094.979-.133 0-.282-.006-.398-.028v.813c.133.022.298.033.426.033zm12.305-2.156l2.758-7.976h-1.52l-1.991 6.312h-.093l-2.007-6.312h-1.575l2.786 7.976h1.642zm5.671-5.08c.824 0 1.366.575 1.393 1.47h-2.847c.061-.884.636-1.47 1.454-1.47zm1.404 3.416c-.199.448-.669.697-1.349.697-.9 0-1.481-.63-1.514-1.637v-.071h4.223v-.442c0-1.908-1.034-3.052-2.758-3.052-1.753 0-2.842 1.222-2.842 3.168 0 1.945 1.073 3.123 2.853 3.123 1.426 0 2.438-.686 2.686-1.786h-1.299zm2.51 1.664h1.371v-3.493c0-.846.619-1.399 1.509-1.399.232 0 .597.039.702.077v-1.271a2.37 2.37 0 00-.57-.06c-.779 0-1.431.442-1.597 1.038h-.094v-.94h-1.321v6.048zm9.552-4.013c-.143-1.271-1.084-2.156-2.637-2.156-1.818 0-2.885 1.167-2.885 3.129 0 1.99 1.073 3.162 2.891 3.162 1.531 0 2.482-.852 2.631-2.117h-1.304c-.144.63-.62.967-1.333.967-.934 0-1.498-.74-1.498-2.012 0-1.255.559-1.98 1.498-1.98.752 0 1.205.421 1.333 1.007h1.304zm3.621-1.067c.823 0 1.365.575 1.393 1.47h-2.847c.061-.884.636-1.47 1.454-1.47zm1.404 3.416c-.199.448-.669.697-1.349.697-.901 0-1.481-.63-1.514-1.637v-.071h4.222v-.442c0-1.908-1.033-3.052-2.758-3.052-1.752 0-2.841 1.222-2.841 3.168 0 1.945 1.073 3.123 2.853 3.123 1.425 0 2.437-.686 2.686-1.786h-1.299zm2.565 1.664h1.371v-8.386h-1.371v8.386zM16.503 9.198l6.598 11.32H9.906l6.597-11.32z" fill="#000"/></svg>