<svg width="956" height="956" viewBox="0 0 956 956" fill="none" xmlns="http://www.w3.org/2000/svg">
<g filter="url(#filter0_ii_274_118)">
<path d="M898 494.105C882.877 704.085 645.627 892.316 458.735 885.838C271.843 879.359 44.2175 660.712 58.6534 421.129C71.7204 204.265 258.007 59 458.735 59C653.964 73.4576 898 262.168 898 494.105Z" fill="url(#paint0_radial_274_118)"/>
</g>
<g filter="url(#filter1_f_274_118)">
<path d="M303.372 169.103C347.416 147.731 372.191 140.147 418.299 133.943L426.557 193.923C379.072 199.438 330.211 223.568 330.211 223.568L303.372 169.103Z" fill="url(#paint1_radial_274_118)" fill-opacity="0.4"/>
<path d="M516.71 140.837C560.066 151.178 596.54 168.414 626.132 184.96L597.916 233.909C566.948 215.984 544.238 207.711 506.387 197.37L516.71 140.837Z" fill="url(#paint2_radial_274_118)" fill-opacity="0.4"/>
<path d="M724.543 404.887C724.543 404.887 741.748 448.321 745.189 500.717C748.63 553.113 738.307 588.274 738.307 588.274L833.965 625.503C833.965 625.503 853.235 551.045 853.235 500.717C853.235 450.389 815.384 372.484 815.384 372.484L724.543 404.887Z" fill="url(#paint3_radial_274_118)" fill-opacity="0.4"/>
<path d="M118.937 368.347C103.109 416.607 104.485 463.488 106.55 486.928C108.614 510.369 123.754 577.243 140.271 608.957L220.789 580.001C220.789 580.001 197.585 546.908 192.573 500.717C187.561 454.525 196.702 418.675 202.896 399.371L118.937 368.347Z" fill="url(#paint4_radial_274_118)" fill-opacity="0.4"/>
<path d="M90.0331 486.928C86.5366 443.495 91.4094 379.378 101.044 362.142L70.6259 349.043C63.7789 374.002 59.3711 407.834 57.7214 435.221C56.5133 455.277 56.8393 467.485 58.5739 486.928C58.5739 486.928 69.3874 539.325 76.9575 562.765C84.5276 586.206 102.42 623.435 102.42 623.435L126.507 613.783C116.872 596.547 93.5295 530.362 90.0331 486.928Z" fill="url(#paint5_radial_274_118)" fill-opacity="0.4"/>
<path d="M200.143 249.077L228.359 271.828C220.789 280.101 208.402 298.026 199.455 312.504L167.11 295.268C179.498 273.206 187.068 263.555 200.143 249.077Z" fill="url(#paint6_radial_274_118)" fill-opacity="0.4"/>
<path d="M268.962 354.559L290.296 366.279C293.737 360.074 298.554 351.801 304.748 344.907L286.167 329.739C279.973 334.565 272.403 349.043 268.962 354.559Z" fill="url(#paint7_radial_274_118)" fill-opacity="0.4"/>
<path d="M705.962 268.381L679.123 295.268C692.324 308.404 698.352 315.226 708.027 326.982L738.307 304.92C727.315 289.839 720.359 281.771 705.962 268.381Z" fill="url(#paint8_radial_274_118)" fill-opacity="0.4"/>
<path d="M853.235 360.074L829.836 369.037C829.836 369.037 869.063 448.321 869.063 500.717C869.063 553.113 844.976 629.639 844.976 629.639L854.611 633.776C854.611 633.776 889.02 564.833 892.461 500.717C895.902 436.6 853.235 360.074 853.235 360.074Z" fill="url(#paint9_radial_274_118)" fill-opacity="0.4"/>
<path d="M260.016 120.154L266.209 131.185C266.209 131.185 326.082 104.297 350.857 97.403C375.631 90.5087 401.094 85.6828 429.998 82.9251V70.5154C429.998 70.5154 381.825 68.4471 332.276 84.4217C289.608 100.85 260.016 120.154 260.016 120.154Z" fill="url(#paint10_radial_274_118)" fill-opacity="0.4"/>
<path d="M524.28 80.1674L521.528 91.8876C521.528 91.8876 555.249 98.1752 593.787 116.707C632.326 135.239 659.853 157.383 659.853 157.383L668.8 146.352C668.8 146.352 636.455 118.775 595.852 100.464C553.872 82.9251 524.28 80.1674 524.28 80.1674Z" fill="url(#paint11_radial_274_118)" fill-opacity="0.4"/>
<path d="M129.948 255.971L139.583 262.865C151.978 240.532 160.27 228.685 176.745 208.4L171.239 202.885C152.878 222.574 143.712 234.599 129.948 255.971Z" fill="url(#paint12_radial_274_118)" fill-opacity="0.4"/>
<path d="M745.189 213.916C765.146 232.53 780.975 247.698 794.05 268.381L779.598 276.654C766.523 255.971 753.614 244.097 732.802 226.326L745.189 213.916Z" fill="url(#paint13_radial_274_118)" fill-opacity="0.4"/>
<path d="M148.529 621.366C154.308 633.637 158.327 639.722 166.422 649.633L224.918 613.783C221.128 609.419 219.217 606.893 216.66 602.062L148.529 621.366Z" fill="url(#paint14_radial_274_118)" fill-opacity="0.4"/>
<path d="M111.367 632.397L132.013 625.503C138.206 637.223 143.712 645.496 154.035 657.906L133.389 670.316C123.84 656.726 118.967 648.49 111.367 632.397Z" fill="url(#paint15_radial_274_118)" fill-opacity="0.4"/>
<path d="M804.373 675.831C812.762 665.941 817.235 660.166 823.642 648.254L732.113 606.888C728.717 612.44 727.153 614.8 724.543 618.609L804.373 675.831Z" fill="url(#paint16_radial_274_118)" fill-opacity="0.4"/>
<path d="M831.213 651.701L842.224 657.216C834.529 670.026 829.729 676.882 820.89 688.93L811.943 682.036C819.369 671.232 823.566 664.825 831.213 651.701Z" fill="url(#paint17_radial_274_118)" fill-opacity="0.4"/>
</g>
<defs>
<filter id="filter0_ii_274_118" x="58" y="40" width="840" height="846" filterUnits="userSpaceOnUse" color-interpolation-filters="sRGB">
<feFlood flood-opacity="0" result="BackgroundImageFix"/>
<feBlend mode="normal" in="SourceGraphic" in2="BackgroundImageFix" result="shape"/>
<feColorMatrix in="SourceAlpha" type="matrix" values="0 0 0 0 0 0 0 0 0 0 0 0 0 0 0 0 0 0 127 0" result="hardAlpha"/>
<feOffset/>
<feGaussianBlur stdDeviation="9.5"/>
<feComposite in2="hardAlpha" operator="arithmetic" k2="-1" k3="1"/>
<feColorMatrix type="matrix" values="0 0 0 0 1 0 0 0 0 1 0 0 0 0 1 0 0 0 0.4 0"/>
<feBlend mode="normal" in2="shape" result="effect1_innerShadow_274_118"/>
<feColorMatrix in="SourceAlpha" type="matrix" values="0 0 0 0 0 0 0 0 0 0 0 0 0 0 0 0 0 0 127 0" result="hardAlpha"/>
<feOffset dy="-19"/>
<feGaussianBlur stdDeviation="13"/>
<feComposite in2="hardAlpha" operator="arithmetic" k2="-1" k3="1"/>
<feColorMatrix type="matrix" values="0 0 0 0 1 0 0 0 0 1 0 0 0 0 1 0 0 0 0.1 0"/>
<feBlend mode="normal" in2="effect1_innerShadow_274_118" result="effect2_innerShadow_274_118"/>
</filter>
<filter id="filter1_f_274_118" x="52" y="60" width="851" height="838" filterUnits="userSpaceOnUse" color-interpolation-filters="sRGB">
<feFlood flood-opacity="0" result="BackgroundImageFix"/>
<feBlend mode="normal" in="SourceGraphic" in2="BackgroundImageFix" result="shape"/>
<feGaussianBlur stdDeviation="2.5" result="effect1_foregroundBlur_274_118"/>
</filter>
<radialGradient id="paint0_radial_274_118" cx="0" cy="0" r="1" gradientUnits="userSpaceOnUse" gradientTransform="translate(477.967 472.419) rotate(90) scale(413.419 420.034)">
<stop offset="0.69085"/>
<stop offset="1" stop-color="#373737"/>
</radialGradient>
<radialGradient id="paint1_radial_274_118" cx="0" cy="0" r="1" gradientUnits="userSpaceOnUse" gradientTransform="translate(477.5 479) rotate(90) scale(414 420.5)">
<stop offset="0.629361"/>
<stop offset="1" stop-color="white"/>
</radialGradient>
<radialGradient id="paint2_radial_274_118" cx="0" cy="0" r="1" gradientUnits="userSpaceOnUse" gradientTransform="translate(477.5 479) rotate(90) scale(414 420.5)">
<stop offset="0.629361"/>
<stop offset="1" stop-color="white"/>
</radialGradient>
<radialGradient id="paint3_radial_274_118" cx="0" cy="0" r="1" gradientUnits="userSpaceOnUse" gradientTransform="translate(477.5 479) rotate(90) scale(414 420.5)">
<stop offset="0.629361"/>
<stop offset="1" stop-color="white"/>
</radialGradient>
<radialGradient id="paint4_radial_274_118" cx="0" cy="0" r="1" gradientUnits="userSpaceOnUse" gradientTransform="translate(477.5 479) rotate(90) scale(414 420.5)">
<stop offset="0.629361"/>
<stop offset="1" stop-color="white"/>
</radialGradient>
<radialGradient id="paint5_radial_274_118" cx="0" cy="0" r="1" gradientUnits="userSpaceOnUse" gradientTransform="translate(477.5 479) rotate(90) scale(414 420.5)">
<stop offset="0.629361"/>
<stop offset="1" stop-color="white"/>
</radialGradient>
<radialGradient id="paint6_radial_274_118" cx="0" cy="0" r="1" gradientUnits="userSpaceOnUse" gradientTransform="translate(477.5 479) rotate(90) scale(414 420.5)">
<stop offset="0.629361"/>
<stop offset="1" stop-color="white"/>
</radialGradient>
<radialGradient id="paint7_radial_274_118" cx="0" cy="0" r="1" gradientUnits="userSpaceOnUse" gradientTransform="translate(477.5 479) rotate(90) scale(414 420.5)">
<stop offset="0.629361"/>
<stop offset="1" stop-color="white"/>
</radialGradient>
<radialGradient id="paint8_radial_274_118" cx="0" cy="0" r="1" gradientUnits="userSpaceOnUse" gradientTransform="translate(477.5 479) rotate(90) scale(414 420.5)">
<stop offset="0.629361"/>
<stop offset="1" stop-color="white"/>
</radialGradient>
<radialGradient id="paint9_radial_274_118" cx="0" cy="0" r="1" gradientUnits="userSpaceOnUse" gradientTransform="translate(477.5 479) rotate(90) scale(414 420.5)">
<stop offset="0.629361"/>
<stop offset="1" stop-color="white"/>
</radialGradient>
<radialGradient id="paint10_radial_274_118" cx="0" cy="0" r="1" gradientUnits="userSpaceOnUse" gradientTransform="translate(477.5 479) rotate(90) scale(414 420.5)">
<stop offset="0.629361"/>
<stop offset="1" stop-color="white"/>
</radialGradient>
<radialGradient id="paint11_radial_274_118" cx="0" cy="0" r="1" gradientUnits="userSpaceOnUse" gradientTransform="translate(477.5 479) rotate(90) scale(414 420.5)">
<stop offset="0.629361"/>
<stop offset="1" stop-color="white"/>
</radialGradient>
<radialGradient id="paint12_radial_274_118" cx="0" cy="0" r="1" gradientUnits="userSpaceOnUse" gradientTransform="translate(477.5 479) rotate(90) scale(414 420.5)">
<stop offset="0.629361"/>
<stop offset="1" stop-color="white"/>
</radialGradient>
<radialGradient id="paint13_radial_274_118" cx="0" cy="0" r="1" gradientUnits="userSpaceOnUse" gradientTransform="translate(477.5 479) rotate(90) scale(414 420.5)">
<stop offset="0.629361"/>
<stop offset="1" stop-color="white"/>
</radialGradient>
<radialGradient id="paint14_radial_274_118" cx="0" cy="0" r="1" gradientUnits="userSpaceOnUse" gradientTransform="translate(477.5 479) rotate(90) scale(414 420.5)">
<stop offset="0.629361"/>
<stop offset="1" stop-color="white"/>
</radialGradient>
<radialGradient id="paint15_radial_274_118" cx="0" cy="0" r="1" gradientUnits="userSpaceOnUse" gradientTransform="translate(477.5 479) rotate(90) scale(414 420.5)">
<stop offset="0.629361"/>
<stop offset="1" stop-color="white"/>
</radialGradient>
<radialGradient id="paint16_radial_274_118" cx="0" cy="0" r="1" gradientUnits="userSpaceOnUse" gradientTransform="translate(477.5 479) rotate(90) scale(414 420.5)">
<stop offset="0.629361"/>
<stop offset="1" stop-color="white"/>
</radialGradient>
<radialGradient id="paint17_radial_274_118" cx="0" cy="0" r="1" gradientUnits="userSpaceOnUse" gradientTransform="translate(477.5 479) rotate(90) scale(414 420.5)">
<stop offset="0.629361"/>
<stop offset="1" stop-color="white"/>
</radialGradient>
</defs>
</svg>
