<svg width="500" height="500" viewBox="0 0 500 500" fill="none" xmlns="http://www.w3.org/2000/svg">
<path d="M301.724 198.138H198.276V301.846H301.724V198.138Z" fill="#DA291C"/>
<path d="M77.5862 198.138H181.034V301.846H77.5862V198.138Z" fill="#DA291C"/>
<path d="M301.724 319.131H198.276V425H301.724V319.131Z" fill="#DA291C"/>
<path d="M422.414 301.862L318.966 301.862L318.966 198.154L422.414 198.154L422.414 301.862Z" fill="#DA291C"/>
<path d="M198.276 180.869L301.724 180.869L301.724 74.9999L198.276 74.9999L198.276 180.869Z" fill="#DA291C"/>
<path d="M301.724 179.5H198.276V301.846H301.724V179.5Z" fill="#DA291C"/>
<path d="M77.5862 198.138H181.034V301.846H77.5862V198.138Z" fill="#DA291C"/>
<path d="M301.724 319.131H198.276V425H301.724V319.131Z" fill="#DA291C"/>
<path d="M422.414 301.862L301.724 301.862L301.724 198.154L422.414 198.154L422.414 301.862Z" fill="#DA291C"/>
<path d="M198.276 180.869L301.724 180.869L301.724 74.9999L198.276 74.9999L198.276 180.869Z" fill="#DA291C"/>
</svg>
